<?xml version="1.0" encoding="UTF-8"?>
<svg width="97px" height="41px" viewBox="0 0 97 41" version="1.1" xmlns="http://www.w3.org/2000/svg" xmlns:xlink="http://www.w3.org/1999/xlink">
    <!-- Generator: Sketch 55.1 (78136) - https://sketchapp.com -->
    <title>logo</title>
    <desc>Created with Sketch.</desc>
    <g id="Page-1" stroke="none" stroke-width="1" fill="none" fill-rule="evenodd">
        <g id="1440" transform="translate(-100.000000, -50.000000)">
            <g id="logo" transform="translate(100.000000, 50.000000)">
                <path d="M52.49985,17.7498 C52.49985,18.9923 51.49235,19.9998 50.24985,19.9998 C49.00735,19.9998 47.99985,18.9923 47.99985,17.7498 C47.99985,16.5073 49.00735,15.4998 50.24985,15.4998 C51.49235,15.4998 52.49985,16.5073 52.49985,17.7498" id="Fill-1" fill="#1ABC9C"></path>
                <polygon id="Fill-3" fill="#FFFFFF" points="17.057 19.9998 13.1425 19.9998 10.4855 12.5998 7.8 19.9998 4.114 19.9998 0 6.9998 4.5 6.9998 6.457 14.6568 8.7715 6.9998 12.6 6.9998 15 14.6853 16.5 6.9998 21 6.9998"></polygon>
                <path d="M22.49985,6.9998 L26.49985,6.9998 L26.49985,8.1713 C27.01385,7.4283 27.83185,6.9143 29.28885,6.9143 C30.34585,6.9143 30.86035,7.0858 31.28885,7.3998 L29.77485,11.4003 C29.14585,11.0288 28.80335,10.9143 28.20285,10.9143 C27.34585,10.9143 26.78585,11.3143 26.49985,11.8283 L26.49985,19.9998 L22.49985,19.9998 L22.49985,6.9998 Z" id="Fill-5" fill="#FFFFFF"></path>
                <path d="M30.8143,33.34305 C29.7283,34.82855 27.7858,35.62855 25.5568,35.62855 C21.2713,35.62855 18.4998,32.91405 18.4998,28.85705 C18.4998,25.11455 21.2423,22.08555 25.2998,22.08555 C27.4998,22.08555 29.3858,22.68605 30.5568,23.91455 L28.5858,27.28555 C27.6713,26.37155 26.8143,26.08555 25.8433,26.08555 C24.4998,26.08555 22.9998,27.02855 22.9998,28.85705 C22.9998,30.60005 24.5568,31.62805 25.9003,31.62805 C27.1573,31.62805 28.0423,31.02855 28.8143,30.20005 L30.8143,33.34305 Z" id="Fill-7" fill="#FFFFFF"></path>
                <path d="M40.0028,22.2 C38.6883,22.2 37.7423,22.657 36.9998,23.3145 L36.9998,20 L36.9998,15 L36.9998,13.857 L40.8463,20 L46.4998,20 L41.5603,13 L45.4998,7 L40.3608,7 L36.9998,12.714 L36.9998,-7.10542736e-15 L32.4998,-7.10542736e-15 L32.4998,15 L32.4998,20 L32.4998,35.5 L36.9998,35.5 L36.9998,27.0285 C37.5998,26.4285 38.1458,26.2 38.8883,26.2 C40.0888,26.2 40.9998,27 40.9998,28.286 L40.9998,35.5 L45.4998,35.5 L45.4998,27.743 C45.4998,23.714 42.9743,22.2 40.0028,22.2" id="Fill-9" fill="#FFFFFF"></path>
                <path d="M54.2259,31.2283 L54.2259,30.4283 C53.8259,30.1428 53.3119,29.9998 52.5974,29.9998 C51.8829,29.9998 51.3689,30.3428 51.3689,30.9713 C51.3689,31.5428 51.8829,31.8853 52.5974,31.8853 C53.4544,31.8853 53.9684,31.5713 54.2259,31.2283 L54.2259,31.2283 Z M48.1114,23.3428 C49.1404,22.7143 51.0834,22.0858 52.8829,22.0858 C56.7974,22.0858 58.4999,24.0568 58.4999,27.5428 L58.4999,35.4998 L54.4999,35.4998 L54.5114,34.1138 C53.8824,34.9998 52.5404,35.4568 51.1399,35.4568 C48.8259,35.4568 47.0829,33.9998 47.0829,31.3998 C47.0829,28.4858 49.1689,27.1428 51.7114,27.1428 C52.8544,27.1428 53.8259,27.5428 54.2259,27.8573 C54.3114,26.3143 53.5969,25.6568 52.4544,25.6568 C50.9399,25.6568 49.9689,26.1428 49.1689,26.4573 L48.1114,23.3428 Z" id="Fill-11" fill="#FFFFFF"></path>
                <path d="M80.99985,35.4998 L76.49985,35.4998 L76.49985,28.0288 C76.49985,26.9143 76.06935,26.1998 74.86935,26.1998 C73.98335,26.1998 73.28535,26.6568 72.99985,27.3143 L72.99985,35.4998 L68.49985,35.4998 L68.49985,27.9998 C68.49985,26.9143 68.15535,26.1998 67.12635,26.1998 C66.29785,26.1998 65.51385,26.4858 64.99985,27.2283 L64.99985,35.4998 L60.99985,35.4998 L60.99985,22.4998 L64.99985,22.4998 L64.99985,23.4998 C65.91385,22.5858 67.38385,22.1998 68.89785,22.1998 C70.86885,22.1998 72.04285,22.9708 72.49985,23.9998 C73.38535,22.9143 74.66885,22.1998 76.69785,22.1998 C78.98385,22.1998 80.99985,23.3713 80.99985,26.8853 L80.99985,35.4998 Z" id="Fill-13" fill="#FFFFFF"></path>
                <path d="M87.49985,27.2283 L87.49985,31.1428 C88.12885,31.5143 88.76685,31.6283 89.68085,31.6283 C91.53785,31.6283 92.42385,30.3143 92.42385,28.7428 C92.42385,27.2573 91.53785,26.0858 89.90985,26.0858 C89.08085,26.0858 88.21435,26.4283 87.49985,27.2283 L87.49985,27.2283 Z M83.49985,22.4998 L87.49985,22.4998 L87.49985,23.3998 C88.21435,22.6858 89.68085,22.0858 91.25235,22.0858 C94.70935,22.0858 96.99535,24.8573 96.99535,28.6568 C96.99535,32.5713 94.25235,35.6288 90.08085,35.6288 C89.19585,35.6288 88.10035,35.4858 87.49985,35.2283 L87.49985,40.9998 L83.49985,40.9998 L83.49985,22.4998 Z" id="Fill-15" fill="#FFFFFF"></path>
            </g>
        </g>
    </g>
</svg>